<?xml version="1.0" standalone="no"?><!DOCTYPE svg PUBLIC "-//W3C//DTD SVG 1.1//EN" "http://www.w3.org/Graphics/SVG/1.1/DTD/svg11.dtd"><svg t="1672132036504" class="icon" viewBox="0 0 1024 1024" version="1.1" xmlns="http://www.w3.org/2000/svg" p-id="4664" xmlns:xlink="http://www.w3.org/1999/xlink" width="48" height="48"><path d="M395.093333 237.226667A316.16 316.16 0 0 0 384 320a320 320 0 0 0 320 320 316.16 316.16 0 0 0 82.773333-11.093333 298.666667 298.666667 0 1 1-391.68-391.68M512 128a384 384 0 1 0 384 384 417.92 417.92 0 0 0-3.84-52.053333A234.666667 234.666667 0 1 1 564.053333 131.84 417.92 417.92 0 0 0 512 128z" p-id="4665"></path></svg>
